<svg xmlns="http://www.w3.org/2000/svg" xmlns:xlink="http://www.w3.org/1999/xlink" width="68.799" height="75.67" viewBox="0 0 68.799 75.67">
  <defs>
    <linearGradient id="linear-gradient" x1="0.5" x2="0.5" y2="1" gradientUnits="objectBoundingBox">
      <stop offset="0" stop-color="#ed8770"/>
      <stop offset="1" stop-color="#d9519d"/>
    </linearGradient>
  </defs>
  <g id="Logo_img" data-name="Logo img" transform="translate(0.5 0.5)">
    <g id="Group_2044" data-name="Group 2044">
      <path id="Union_1" data-name="Union 1" d="M27.11,73.083,7.055,61.462l.053-.128c2.286-5.576,2.917-11.657,4.14-17.554q.328,1.273.64,2.548c1.1,4.462,2.04,8.981,3.426,13.364,1.181,3.737,3.626,10.008,8.825,8.333,2.724-.878,3.944-3.3,4.926-5.765a49.3,49.3,0,0,0,2.254-8.565c1.137-5.678,1.862-11.427,3.073-17.091a76.3,76.3,0,0,1,1.921-7.393c.017-.054.037-.106.053-.16.131.487.256.976.371,1.466.4,1.7.7,3.423.96,5.152.027.185.053.369.08.553.061.475.116.95.171,1.426.115,1.017.211,2.035.3,3.055a116.439,116.439,0,0,1,.324,13.365q-.106,3.289-.429,6.565c-.052.533-.112,1.065-.174,1.6-.025.22-.054.439-.081.66a.034.034,0,0,0,0,.012c-.142,1.012-.311,2.021-.5,3.025a48.267,48.267,0,0,1-1.365,5.527c-.238.76-.51,1.508-.8,2.247-.067.148-.134.3-.2.444-.079.168-.163.332-.247.5q-.5.031-1,.031A13.564,13.564,0,0,1,27.11,73.083ZM47.248,54.344a100.6,100.6,0,0,0-2.166-26.137c-.618-2.683-1.452-5.759-3.143-7.981L67.8,48.194,41.939,20.226c-2.571-3.38-6.229-4.213-9.668-1.471-2.646,2.108-3.8,6.316-4.716,9.387A108.3,108.3,0,0,0,24.734,41.1L16.368,32.2c-1.436-2.425-3.738-3.825-6.6-3.267-2.666.521-3.951,3.274-4.882,5.5a43.91,43.91,0,0,0-2.179,8.2c-.746,3.638-1.241,7.3-2.115,10.911A11.672,11.672,0,0,1,0,49.448V25.224C0,21,2.78,15.8,6.439,13.681L27.092,1.59a14.679,14.679,0,0,1,13.289,0L61.214,13.681A14.733,14.733,0,0,1,67.8,25.224V49.448a14.735,14.735,0,0,1-6.584,11.545L45.442,70.172A83.519,83.519,0,0,0,47.248,54.344ZM20.267,44.018c-.962-3.925-1.83-8.3-3.912-11.816L24.728,41.1c-.278,1.648-.546,3.3-.819,4.941-.406,2.447-.838,4.9-1.374,7.328C21.718,50.265,21.028,47.127,20.267,44.018Z" transform="translate(0 0)" stroke="rgba(0,0,0,0)" stroke-miterlimit="10" stroke-width="1" fill="url(#linear-gradient)"/>
      <path id="Path_68412" data-name="Path 68412" d="M355.96,332.477c-.085-1.02-.181-2.038-.3-3.055-.055-.476-.11-.95-.171-1.426-.026-.184-.052-.368-.08-.553-.258-1.729-.561-3.452-.96-5.152-.115-.49-.239-.978-.37-1.466-.017.054-.037.106-.053.16a76.3,76.3,0,0,0-1.921,7.393c-1.211,5.664-1.936,11.413-3.073,17.091a49.256,49.256,0,0,1-2.254,8.565c-.982,2.469-2.2,4.888-4.926,5.765-5.2,1.675-7.644-4.6-8.825-8.333-1.386-4.383-2.33-8.9-3.426-13.364q-.313-1.275-.64-2.548c-1.222,5.9-1.854,11.978-4.14,17.554l-.053.128,20.055,11.621a14.033,14.033,0,0,0,7.652,1.557c.084-.166.169-.33.247-.5.07-.148.137-.3.2-.444.294-.739.566-1.487.8-2.247A48.318,48.318,0,0,0,355.1,357.7c.189-1,.358-2.013.5-3.025a.042.042,0,0,1,0-.012c.027-.221.056-.44.081-.66.062-.531.122-1.063.174-1.6q.322-3.273.429-6.565A116.4,116.4,0,0,0,355.96,332.477Z" transform="translate(-317.715 -291.775)" opacity="0.25"/>
      <path id="Path_68413" data-name="Path 68413" d="M427.838,330.212a83.557,83.557,0,0,1-1.806,15.827l15.772-9.179a14.735,14.735,0,0,0,6.584-11.545v-1.254l-25.86-27.968c1.691,2.222,2.525,5.3,3.143,7.981A100.6,100.6,0,0,1,427.838,330.212Z" transform="translate(-380.591 -275.868)" opacity="0.25"/>
      <path id="Path_68414" data-name="Path 68414" d="M354.746,341.472c.761,3.109,1.451,6.247,2.269,9.347.536-2.427.968-4.881,1.374-7.328.273-1.645.54-3.293.819-4.941l-8.373-8.894C352.916,333.172,353.784,337.547,354.746,341.472Z" transform="translate(-334.479 -297.453)" opacity="0.25"/>
    </g>
  </g>
</svg>
